<svg width="182" height="57" viewBox="0 0 182 57" fill="none" xmlns="http://www.w3.org/2000/svg">
<path d="M5 2.99988H35L40.5 9.99988L37 21.4999L13.5 44.9999H5V2.99988Z" fill="white"/>
<path d="M10.2114 43.1784C10.0675 43.3246 9.86185 43.4082 9.63568 43.4082H7.74404C7.51787 43.4082 7.33282 43.2201 7.33282 42.9903V17.4747V5.64684C7.33282 5.58415 7.3945 5.52146 7.45618 5.52146H28.5109H28.552C33.6923 5.52146 37.8663 9.76361 37.8663 14.9879C37.8663 18.9375 35.4606 22.3438 32.068 23.7439C31.9446 23.7857 31.9857 23.9738 32.1091 23.9738H39.2439C39.3467 23.9738 39.47 23.932 39.5523 23.8484C41.9168 21.3198 43.3561 17.9135 43.3561 14.1311C43.3561 6.48274 37.2494 0.276245 29.7035 0.276245H1.41118C1.18501 0.276245 0.999954 0.464321 0.999954 0.694191V28.1323C0.999954 28.195 1.04108 28.2368 1.10276 28.2368H0.999954V46.1458V49.3013V50.4297C0.999954 50.6596 1.18501 50.8477 1.41118 50.8477H9.71792C9.92353 50.8477 10.1086 50.7641 10.2731 50.6387L13.8713 47.3578C13.9535 47.2742 14.0152 47.1697 14.0152 47.0443V39.5004C13.9947 39.5213 13.0694 40.399 10.2114 43.1784Z" fill="#FF6431"/>
<g filter="url(#filter0_d_84_127)">
<path d="M13.9534 47.2947V23.8898H39.5522L13.9534 47.2947Z" fill="#FF6431"/>
</g>
<path d="M49.0121 14.6001H52.875V5.94972C52.875 4.34536 53.8672 3.22224 55.3354 3.22224C56.7644 3.22224 57.6239 4.1314 57.6239 5.66898V14.6001H61.3414V5.89626C61.3414 4.30522 62.3071 3.22224 63.7758 3.22224C65.2704 3.22224 66.0907 4.1314 66.0907 5.7893V14.6001H69.9536V4.81328C69.9536 1.92539 68.0883 0.00012207 65.3101 0.00012207C63.2332 0.00012207 61.5397 1.13656 60.905 2.94151H60.8257C60.3492 1.06969 58.9207 0.00012207 56.8702 0.00012207C54.9387 0.00012207 53.4172 1.13656 52.8221 2.86128H52.7428V0.267493H49.0121V14.6001ZM74.1339 19.908C77.7588 19.908 79.5312 18.5977 80.7486 14.921L85.6297 0.267493H81.5552L78.539 11.4715H78.4729L75.4567 0.267493H71.2103L76.1447 14.6135C76.1712 14.6669 76.0257 15.2418 76.0257 15.2953C75.7612 16.4318 75.06 16.8863 73.6442 16.8863C73.4988 16.8863 72.7979 16.8863 72.6785 16.8596V19.8678C72.7979 19.8946 74.0017 19.908 74.1339 19.908Z" fill="#024180"/>
<path d="M49.0121 19.9854V50.8747H56.8224V41.8201H61.8446C68.6758 41.8201 73.3793 37.5173 73.3793 30.9241C73.3793 24.2881 68.91 19.9854 62.313 19.9854H49.0121ZM56.8224 26.0006H60.2488C63.5258 26.0006 65.4837 27.7345 65.4837 30.9455C65.4837 34.1778 63.5258 35.9117 60.2059 35.9117H56.8224V26.0006ZM84.6584 45.9943C82.8709 45.9943 81.6576 45.0953 81.6576 43.6181C81.6576 42.248 82.7645 41.3274 84.7434 41.1777L88.9571 40.8995V42.5051C88.9571 44.5815 86.9568 45.9943 84.6584 45.9943ZM81.9771 51.2172C84.7648 51.2172 87.5954 49.9114 88.8507 47.5568H89V50.8747H96.342V34.8842C96.342 30.1963 92.2346 27.0067 86.0416 27.0067C79.5719 27.0067 75.5285 30.1534 75.3157 34.927H82.1045C82.3176 33.4928 83.6154 32.4225 85.6586 32.4225C87.6379 32.4225 88.9571 33.45 88.9571 35.3124V36.6394L83.5305 36.9608C77.5292 37.3245 74.1878 39.7649 74.1878 44.1319C74.1878 48.3489 77.678 51.2172 81.9771 51.2172ZM100.023 50.8747H107.557V27.5633H100.023V50.8747ZM103.79 25.6795C105.982 25.6795 107.643 24.0526 107.643 21.9548C107.643 19.857 105.982 18.2515 103.79 18.2515C101.598 18.2515 99.9171 19.857 99.9171 21.9548C99.9171 24.0526 101.598 25.6795 103.79 25.6795ZM110.856 34.6274C110.856 38.2024 113.239 40.5997 117.772 41.563L122.156 42.4836C123.965 42.8688 124.667 43.4042 124.667 44.3459C124.667 45.5875 123.433 46.3152 121.433 46.3152C119.219 46.3152 117.836 45.2877 117.623 43.5539H110.302C110.622 48.3273 114.538 51.4312 121.305 51.4312C127.775 51.4312 132.137 48.3273 132.137 43.4896C132.137 39.9577 130.158 38.0523 125.54 37.0678L120.688 36.0829C118.943 35.7193 118.092 35.0555 118.092 34.135C118.092 32.9363 119.283 32.1228 121.135 32.1228C123.22 32.1228 124.54 33.1717 124.604 34.8415H131.499C131.456 30.025 127.519 27.0067 121.199 27.0067C114.814 27.0067 110.856 29.9608 110.856 34.6274ZM144.417 45.9943C142.629 45.9943 141.416 45.0953 141.416 43.6181C141.416 42.248 142.523 41.3274 144.502 41.1777L148.715 40.8995V42.5051C148.715 44.5815 146.715 45.9943 144.417 45.9943ZM141.735 51.2172C144.523 51.2172 147.354 49.9114 148.609 47.5568H148.758V50.8747H156.1V34.8842C156.1 30.1963 151.993 27.0067 145.8 27.0067C139.33 27.0067 135.287 30.1534 135.074 34.927H141.863C142.076 33.4928 143.374 32.4225 145.417 32.4225C147.396 32.4225 148.715 33.45 148.715 35.3124V36.6394L143.289 36.9608C137.288 37.3245 133.946 39.7649 133.946 44.1319C133.946 48.3489 137.436 51.2172 141.735 51.2172ZM169.316 45.9943C167.528 45.9943 166.315 45.0953 166.315 43.6181C166.315 42.248 167.422 41.3274 169.401 41.1777L173.615 40.8995V42.5051C173.615 44.5815 171.615 45.9943 169.316 45.9943ZM166.634 51.2172C169.423 51.2172 172.253 49.9114 173.509 47.5568H173.657V50.8747H180.999V34.8842C180.999 30.1963 176.892 27.0067 170.699 27.0067C164.23 27.0067 160.186 30.1534 159.974 34.927H166.762C166.975 33.4928 168.273 32.4225 170.316 32.4225C172.295 32.4225 173.615 33.45 173.615 35.3124V36.6394L168.188 36.9608C162.187 37.3245 158.846 39.7649 158.846 44.1319C158.846 48.3489 162.336 51.2172 166.634 51.2172Z" fill="#FF6431"/>
<path d="M180.929 7.71429C180.929 11.6986 177.699 14.9286 173.714 14.9286C169.73 14.9286 166.5 11.6986 166.5 7.71429C166.5 3.72995 169.73 0.5 173.714 0.5C177.699 0.5 180.929 3.72995 180.929 7.71429Z" stroke="#024180"/>
<path d="M171.334 12V4H174.186C174.805 4 175.32 4.10677 175.729 4.32031C176.14 4.53385 176.447 4.82943 176.65 5.20703C176.854 5.58203 176.955 6.01562 176.955 6.50781C176.955 6.9974 176.852 7.42839 176.646 7.80078C176.443 8.17057 176.136 8.45833 175.725 8.66406C175.316 8.86979 174.801 8.97266 174.182 8.97266H172.021V7.93359H174.072C174.463 7.93359 174.781 7.8776 175.025 7.76562C175.273 7.65365 175.454 7.49089 175.568 7.27734C175.683 7.0638 175.74 6.80729 175.74 6.50781C175.74 6.20573 175.682 5.94401 175.564 5.72266C175.45 5.5013 175.269 5.33203 175.021 5.21484C174.777 5.09505 174.455 5.03516 174.057 5.03516H172.541V12H171.334ZM175.283 8.39062L177.26 12H175.885L173.947 8.39062H175.283Z" fill="#024180"/>
<defs>
<filter id="filter0_d_84_127" x="0.45401" y="14.8902" width="43.598" height="41.4041" filterUnits="userSpaceOnUse" color-interpolation-filters="sRGB">
<feFlood flood-opacity="0" result="BackgroundImageFix"/>
<feColorMatrix in="SourceAlpha" type="matrix" values="0 0 0 0 0 0 0 0 0 0 0 0 0 0 0 0 0 0 127 0" result="hardAlpha"/>
<feOffset dx="-4.4998"/>
<feGaussianBlur stdDeviation="4.4998"/>
<feColorMatrix type="matrix" values="0 0 0 0 0 0 0 0 0 0 0 0 0 0 0 0 0 0 0.12 0"/>
<feBlend mode="normal" in2="BackgroundImageFix" result="effect1_dropShadow_84_127"/>
<feBlend mode="normal" in="SourceGraphic" in2="effect1_dropShadow_84_127" result="shape"/>
</filter>
</defs>
</svg>
