<svg width="32" height="32" viewBox="0 0 32 32" fill="none" xmlns="http://www.w3.org/2000/svg">
<path d="M16 23C19.866 23 23 19.866 23 16C23 12.134 19.866 9 16 9C12.134 9 9 12.134 9 16" stroke="black" stroke-width="1.4"/>
<path d="M3.1529 18C3.05223 17.3481 3 16.6801 3 16C3 8.8203 8.8203 3 16 3C23.1797 3 29 8.8203 29 16C29 23.1797 23.1797 29 16 29C15.3199 29 14.6519 28.9478 14 28.8471" stroke="black" stroke-width="1.4"/>
<path d="M15.647 16.3538L11.0508 30.1423L8.00049 24.0002L1.85839 20.95L15.647 16.3538Z" stroke="black" stroke-width="1.4"/>
</svg>
