<svg width="32" height="32" viewBox="0 0 32 32" fill="none" xmlns="http://www.w3.org/2000/svg">
<path d="M23.5293 3.28402C18.9831 0.238661 13.007 0.238661 8.46094 3.28402" stroke="black" stroke-width="1.4" stroke-linejoin="round"/>
<path d="M21.9922 26.7205C26.9014 24.3065 29.8895 19.1305 29.5263 13.6711" stroke="black" stroke-width="1.4" stroke-linejoin="round"/>
<path d="M9.9975 26.7205C5.08824 24.3065 2.10019 19.1305 2.46334 13.6711" stroke="black" stroke-width="1.4" stroke-linejoin="round"/>
<path d="M29.339 6.17984C30.2216 7.06254 30.2216 8.49367 29.339 9.37637C28.4563 10.2591 27.0252 10.2591 26.1425 9.37637C25.2598 8.49367 25.2598 7.06254 26.1425 6.17984C27.0252 5.29715 28.4563 5.29715 29.339 6.17984" stroke="black" stroke-width="1.4" stroke-linecap="round" stroke-linejoin="round"/>
<path d="M5.85848 6.17984C6.74116 7.06254 6.74116 8.49367 5.85848 9.37637C4.9758 10.2591 3.5447 10.2591 2.66201 9.37637C1.77933 8.49367 1.77933 7.06254 2.66201 6.17984C3.54469 5.29715 4.9758 5.29715 5.85848 6.17984" stroke="black" stroke-width="1.4" stroke-linecap="round" stroke-linejoin="round"/>
<path d="M17.5968 26.5212C18.4794 27.4038 18.4794 28.835 17.5968 29.7177C16.7141 30.6004 15.283 30.6004 14.4003 29.7177C13.5176 28.835 13.5176 27.4039 14.4003 26.5212C15.283 25.6385 16.7141 25.6385 17.5968 26.5212" stroke="black" stroke-width="1.4" stroke-linecap="round" stroke-linejoin="round"/>
<path d="M19.7264 10.8286C21.7862 12.8885 21.7862 16.2277 19.7264 18.2875C17.6665 20.3474 14.3274 20.3474 12.2675 18.2875C10.2077 16.2277 10.2077 12.8885 12.2675 10.8286C14.3274 8.76872 17.6665 8.76872 19.7264 10.8286" stroke="black" stroke-width="1.4" stroke-linecap="round" stroke-linejoin="round"/>
</svg>
