<svg width="48" height="48" viewBox="0 0 48 48" fill="none" xmlns="http://www.w3.org/2000/svg">
<path d="M10.7114 15.8783C18.3266 11.482 30.6734 11.482 38.2886 15.8783C42.0301 18.0382 43.9334 20.8576 43.9983 23.6884C44.0011 23.812 44.0004 23.9355 43.9963 24.0591L43.9509 32.4492C43.6307 35.0578 41.7433 37.6143 38.2886 39.6087C31.9093 43.2915 22.2099 43.8892 14.7528 41.4019C13.308 40.92 11.9474 40.3223 10.7114 39.6087C6.96988 37.4487 5.06664 34.6294 5.00172 31.7986L5.00172 23.9884C4.99943 23.8884 4.99943 23.7884 5.00172 23.6884C5.06664 20.8576 6.96988 18.0382 10.7114 15.8783Z" fill="white"/>
<path d="M5.00172 23.6884C4.9345 26.6192 6.83773 29.5623 10.7114 31.7986C11.9474 32.5121 13.308 33.1098 14.7528 33.5917C22.2099 36.079 31.9093 35.4813 38.2886 31.7986C41.999 29.6565 43.9015 26.8661 43.9963 24.0591M5.00172 23.6884C5.06664 20.8576 6.96988 18.0382 10.7114 15.8783C18.3266 11.482 30.6734 11.482 38.2886 15.8783C42.0301 18.0382 43.9334 20.8576 43.9983 23.6884M5.00172 23.6884L5.00172 31.7986C5.06664 34.6294 6.96988 37.4487 10.7114 39.6087C11.9474 40.3223 13.308 40.92 14.7528 41.4019C22.2099 43.8892 31.9093 43.2915 38.2886 39.6087C41.7433 37.6143 43.6307 35.0578 43.9509 32.4492L43.9963 24.0591M43.9983 23.6884L43.9963 24.0591M43.9983 23.6884C44.0011 23.812 44.0004 23.9355 43.9963 24.0591" stroke="black" stroke-width="1.4"/>
<path d="M10.1268 34.5564C10.4617 34.7497 10.5764 35.1778 10.3831 35.5126C10.1898 35.8474 9.7617 35.9622 9.42689 35.7689L10.1268 34.5564ZM9.14081 35.6008C8.80899 35.4024 8.70081 34.9726 8.89918 34.6408C9.09756 34.309 9.52737 34.2008 9.85919 34.3992L9.14081 35.6008ZM9.85919 34.3992C9.94739 34.4519 10.0366 34.5043 10.1268 34.5564L9.42689 35.7689C9.33054 35.7133 9.23518 35.6572 9.14081 35.6008L9.85919 34.3992ZM12.2788 36.0074C16.1589 37.6923 20.8232 38.5327 25.4967 38.5104L25.5033 39.9103C20.6708 39.9334 15.8088 39.0666 11.7212 37.2916L12.2788 36.0074Z" fill="black"/>
<path d="M38.2886 40.0277C41.7433 38.0333 43.6307 35.4768 43.9509 32.8681L43.9963 24.478C43.9015 27.285 41.999 30.0755 38.2886 32.2175C37.7177 32.5471 37.1201 32.852 36.5 33.1322V40.9423C37.1201 40.6622 37.7177 40.3573 38.2886 40.0277Z" fill="black"/>
<path d="M33.5 34.1323V41.9425" stroke="black" stroke-width="1.4"/>
<path d="M10.7114 8.2972C18.3266 3.90093 30.6734 3.90093 38.2886 8.2972C42.0301 10.4572 43.9334 13.2766 43.9983 16.1074C44.0011 16.2309 44.0004 16.3545 43.9963 16.478L43.9509 24.8681C43.6307 27.4768 41.7433 30.0333 38.2886 32.0277C31.9093 35.7104 22.2099 36.3081 14.7528 33.8208C13.308 33.3389 11.9474 32.7412 10.7114 32.0277C6.96988 29.8677 5.06664 27.0483 5.00172 24.2175L5.00172 16.4073C4.99943 16.3073 4.99943 16.2074 5.00172 16.1074C5.06664 13.2766 6.96988 10.4572 10.7114 8.2972Z" fill="white"/>
<path d="M5.00172 16.1074C4.9345 19.0382 6.83773 21.9812 10.7114 24.2175C11.9474 24.931 13.308 25.5288 14.7528 26.0107C22.2099 28.498 31.9093 27.9002 38.2886 24.2175C41.999 22.0755 43.9015 19.285 43.9963 16.478M5.00172 16.1074C5.06664 13.2766 6.96988 10.4572 10.7114 8.2972C18.3266 3.90093 30.6734 3.90093 38.2886 8.2972C42.0301 10.4572 43.9334 13.2766 43.9983 16.1074M5.00172 16.1074L5.00172 24.2175C5.06664 27.0483 6.96988 29.8677 10.7114 32.0277C11.9474 32.7412 13.308 33.3389 14.7528 33.8208C22.2099 36.3081 31.9093 35.7104 38.2886 32.0277C41.7433 30.0333 43.6307 27.4768 43.9509 24.8681L43.9963 16.478M43.9983 16.1074L43.9963 16.478M43.9983 16.1074C44.0011 16.2309 44.0004 16.3545 43.9963 16.478" stroke="black" stroke-width="1.4"/>
<path d="M38.2886 32.0277C41.7433 30.0333 43.6307 27.4768 43.9509 24.8681L43.9963 16.478C43.9015 19.285 41.999 22.0755 38.2886 24.2175C37.7177 24.5471 37.1201 24.852 36.5 25.1322V32.9423C37.1201 32.6622 37.7177 32.3573 38.2886 32.0277Z" fill="black"/>
<path d="M33.5 26.1323V33.9425" stroke="black" stroke-width="1.4"/>
<path d="M10.1268 26.5567C10.4617 26.75 10.5764 27.1781 10.3831 27.5129C10.1898 27.8477 9.7617 27.9624 9.42689 27.7691L10.1268 26.5567ZM9.14081 27.6011C8.80899 27.4027 8.70081 26.9729 8.89918 26.6411C9.09756 26.3092 9.52737 26.2011 9.85919 26.3994L9.14081 27.6011ZM9.85919 26.3994C9.94739 26.4522 10.0366 26.5046 10.1268 26.5567L9.42689 27.7691C9.33054 27.7135 9.23518 27.6575 9.14081 27.6011L9.85919 26.3994ZM12.2788 28.0077C16.1589 29.6926 20.8232 30.5329 25.4967 30.5106L25.5033 31.9106C20.6708 31.9337 15.8088 31.0668 11.7212 29.2918L12.2788 28.0077Z" fill="black"/>
<path d="M31.4336 9.11572L26.6853 13.2434" stroke="black" stroke-width="1.4"/>
<path d="M32.0618 12.3434L31.4345 9.11619L25.8448 10.2027" stroke="black" stroke-width="1.4"/>
<path d="M16.541 22.0576L19.6425 19.3615L21.1932 18.0135" stroke="black" stroke-width="1.4"/>
<path d="M15.9128 18.8292L16.5401 22.0564L22.1298 20.9699" stroke="black" stroke-width="1.4"/>
<path d="M33.3145 18.7983L29.4288 17.4604L27.486 16.7915" stroke="black" stroke-width="1.4"/>
<path d="M27.7235 19.885L33.3132 18.7985L32.6859 15.5713" stroke="black" stroke-width="1.4"/>
<path d="M14.668 12.375L18.5536 13.7129L20.4964 14.3819" stroke="black" stroke-width="1.4"/>
<path d="M20.2569 11.2891L14.6673 12.3756L15.2946 15.6028" stroke="black" stroke-width="1.4"/>
</svg>
