<svg width="32" height="32" viewBox="0 0 32 32" fill="none" xmlns="http://www.w3.org/2000/svg">
<path d="M24.8398 9.14966C25.6469 9.70883 26.3952 10.2996 27.0732 10.885C28.4699 12.091 29.5985 13.296 30.3779 14.1985C30.7679 14.65 31.0721 15.0283 31.2793 15.2942C31.3827 15.4268 31.4634 15.532 31.5176 15.6047C31.5445 15.6408 31.5658 15.6702 31.5801 15.6897C31.5869 15.699 31.5929 15.7069 31.5967 15.7122C31.5983 15.7146 31.5996 15.7176 31.6006 15.719L31.6025 15.7209L31.0342 16.1292L31.6025 16.5374V16.5383L31.6006 16.5403C31.5996 16.5417 31.5982 16.5441 31.5967 16.5461C31.5928 16.5516 31.587 16.5601 31.5801 16.5696C31.5658 16.5892 31.5444 16.6176 31.5176 16.6536C31.4633 16.7264 31.3828 16.8324 31.2793 16.9651C31.072 17.231 30.7677 17.6084 30.3779 18.0598C29.5984 18.9624 28.4699 20.1673 27.0732 21.3733C24.3008 23.767 20.3665 26.258 15.9473 26.2581C13.6091 26.258 11.4066 25.5603 9.44043 24.5491L10.4854 23.5042C12.1848 24.3224 14.0296 24.8586 15.9473 24.8586C19.8595 24.8585 23.4706 22.6342 26.1582 20.3137C27.4908 19.1631 28.5712 18.0099 29.3184 17.1448C29.6789 16.7273 29.9611 16.3775 30.1553 16.1292C29.9612 15.881 29.6787 15.5308 29.3184 15.1135C28.5713 14.2485 27.4907 13.0952 26.1582 11.9446C25.4445 11.3283 24.6643 10.7202 23.832 10.1575L24.8398 9.14966ZM15.9473 6.00024C18.7669 6.0003 21.3879 7.01555 23.6367 8.37134L22.6143 9.3938C20.5967 8.22596 18.3285 7.40069 15.9473 7.40063C12.035 7.40082 8.42486 9.62406 5.7373 11.9446C4.40467 13.0953 3.32431 14.2484 2.57715 15.1135C2.21651 15.5311 1.93337 15.8809 1.73926 16.1292C1.93343 16.3775 2.21649 16.7272 2.57715 17.1448C3.32431 18.0099 4.4048 19.1632 5.7373 20.3137C6.76582 21.2017 7.93036 22.0742 9.19434 22.8147L8.1748 23.8342C6.93237 23.0774 5.8037 22.2206 4.82227 21.3733C3.42565 20.1674 2.29707 18.9624 1.51758 18.0598C1.12787 17.6086 0.823528 17.231 0.616211 16.9651C0.51285 16.8325 0.432238 16.7264 0.37793 16.6536C0.351182 16.6177 0.329744 16.5892 0.31543 16.5696C0.308579 16.5602 0.302714 16.5516 0.298828 16.5461C0.2974 16.5442 0.295881 16.5417 0.294922 16.5403L0.292969 16.5383V16.5374C0.2964 16.5346 0.339703 16.5028 0.861328 16.1292L0.292969 15.7209L0.294922 15.719C0.295975 15.7175 0.297154 15.7146 0.298828 15.7122C0.302635 15.7069 0.308536 15.6991 0.31543 15.6897C0.329717 15.6701 0.350952 15.6409 0.37793 15.6047C0.432177 15.532 0.51276 15.4269 0.616211 15.2942C0.82348 15.0283 1.12759 14.6501 1.51758 14.1985C2.29707 13.2959 3.42551 12.0911 4.82227 10.885C7.59469 8.49121 11.528 6.00043 15.9473 6.00024ZM21.0391 12.9495C21.6158 13.8714 21.9511 14.9606 21.9512 16.1282C21.9509 19.4437 19.2628 22.1319 15.9473 22.1321C14.7797 22.132 13.6906 21.7967 12.7686 21.22L13.793 20.1956C14.4358 20.5367 15.1688 20.7316 15.9473 20.7317C18.4896 20.7316 20.5505 18.6705 20.5508 16.1282C20.5507 15.3499 20.3566 14.6166 20.0156 13.9739L21.0391 12.9495ZM15.9473 10.1243C17.5881 10.1243 19.0745 10.7829 20.1582 11.8499L19.168 12.8401C18.3378 12.0265 17.2014 11.5247 15.9473 11.5247C13.4051 11.5249 11.3441 13.586 11.3438 16.1282C11.3439 17.3825 11.8454 18.5197 12.6592 19.3499L11.6699 20.3391C10.6027 19.2554 9.94349 17.7691 9.94336 16.1282C9.94367 12.8128 12.6319 10.1245 15.9473 10.1243ZM0.861328 16.1292L0.291992 16.5374L0 16.1292L0.291992 15.7219L0.861328 16.1292ZM31.8955 16.1292L31.6035 16.5374L31.0342 16.1292L31.6035 15.7219L31.8955 16.1292Z" fill="black"/>
<path d="M4 27L28 3" stroke="black" stroke-width="1.4"/>
</svg>
