<svg width="48" height="48" viewBox="0 0 48 48" fill="none" xmlns="http://www.w3.org/2000/svg">
<path fill-rule="evenodd" clip-rule="evenodd" d="M10.8363 16.5906C10.8393 16.5881 10.8423 16.5856 10.8453 16.5831L10.8363 16.5906Z" fill="black"/>
<path d="M35.3508 27.2967V44.1755L40.9998 39.4951V22.6163L35.3508 27.2967Z" fill="black"/>
<path d="M35.3508 44.1755V27.2967M35.3508 44.1755L40.9998 39.4951M35.3508 44.1755C35.3508 44.7597 35.1629 45.2288 34.8478 45.5402M32.9973 23.9356L12.5957 16.39M32.9973 23.9356C34.2971 24.4087 35.3508 25.9135 35.3508 27.2967M32.9973 23.9356L38.6463 19.2552M35.3508 27.2967L40.9998 22.6163M12.5957 16.39L18.2446 11.7096M12.5957 16.39C11.9007 16.137 11.2761 16.2302 10.8453 16.5831M40.9998 39.4951V22.6163M40.9998 39.4951C40.9998 40.0351 40.8392 40.4768 40.566 40.7864L34.8478 45.5402M38.6463 19.2552L18.2446 11.7096M38.6463 19.2552C39.9461 19.7283 40.9998 21.2331 40.9998 22.6163M18.2446 11.7096C17.6658 11.4989 17.1358 11.5283 16.726 11.7479L10.8453 16.5831M10.8363 16.5906C10.4667 16.8985 10.2422 17.3994 10.2422 18.0379V34.9167C10.2422 36.2999 11.2959 37.8048 12.5957 38.2778L32.9973 45.8235C33.7482 46.0967 34.4169 45.966 34.8478 45.5402M10.8363 16.5906C10.8393 16.5881 10.8423 16.5856 10.8453 16.5831M10.8363 16.5906L10.8453 16.5831" stroke="black" stroke-width="1.4"/>
<path d="M25.4101 5.85725L24.8344 5.64773C22.6327 4.84637 20.8478 6.09613 20.8478 8.43916V13.6056L20.8437 14.9537C20.8176 15.1465 20.6636 15.3354 20.3817 15.4829C19.8613 15.7551 19.0699 15.7992 18.4616 15.6154C18.3437 15.5798 18.2327 15.5356 18.1318 15.4829C17.8266 15.3232 17.6713 15.1148 17.666 14.9056V14.2795V7.30936C17.666 3.20906 20.7895 1.02198 24.6425 2.42437L26.5986 3.13632C30.4516 4.53871 33.5751 8.99951 33.5751 13.0998V16.8882L33.5711 19.1961C33.545 19.3889 33.391 19.5779 33.1091 19.7253C32.5887 19.9975 31.7973 20.0417 31.189 19.8578C31.0711 19.8222 30.9601 19.778 30.8592 19.7253C30.554 19.5656 30.3987 19.3572 30.3934 19.148L30.3933 12.974C30.3933 10.0452 28.1622 6.85896 25.4101 5.85725Z" fill="white" stroke="black" stroke-width="1.4"/>
<rect width="22.4156" height="9.43814" rx="4.71907" transform="matrix(0.939693 0.34202 0 1 4.93555 19.1055)" fill="black"/>
<path d="M11.0329 26.0436C11.0329 27.021 10.2884 27.5423 9.36996 27.208C8.45155 26.8738 7.70703 25.8105 7.70703 24.8331C7.70703 23.8558 8.45155 23.3345 9.36996 23.6687C10.2884 24.003 11.0329 25.0663 11.0329 26.0436Z" fill="white"/>
<path d="M17.1305 28.2624C17.1305 29.2397 16.386 29.7611 15.4676 29.4268C14.5492 29.0925 13.8047 28.0292 13.8047 27.0519C13.8047 26.0745 14.5492 25.5532 15.4676 25.8875C16.386 26.2218 17.1305 27.285 17.1305 28.2624Z" fill="white"/>
<path d="M23.2282 30.4821C23.2282 31.4595 22.4837 31.9808 21.5653 31.6465C20.6469 31.3122 19.9023 30.249 19.9023 29.2716C19.9023 28.2943 20.6469 27.7729 21.5653 28.1072C22.4837 28.4415 23.2282 29.5048 23.2282 30.4821Z" fill="white"/>
</svg>
