<svg width="48" height="48" viewBox="0 0 48 48" fill="none" xmlns="http://www.w3.org/2000/svg">
<path fill-rule="evenodd" clip-rule="evenodd" d="M7.43237 7.4393C7.43583 7.43642 7.4393 7.43356 7.44278 7.43071L7.43237 7.4393Z" fill="black"/>
<path d="M35.5899 19.7364V44.3734L42.0782 38.9975V14.3604L35.5899 19.7364Z" fill="black"/>
<path d="M35.5899 44.3734V19.7364M35.5899 44.3734L42.0782 38.9975M35.5899 44.3734C35.5899 45.0444 35.374 45.5832 35.0121 45.9408M32.8866 15.8757L9.45323 7.20882M32.8866 15.8757C34.3796 16.4191 35.5899 18.1476 35.5899 19.7364M32.8866 15.8757L39.375 10.4998M35.5899 19.7364L42.0782 14.3604M9.45323 7.20882L15.9416 1.83289M9.45323 7.20882C8.65502 6.9183 7.93761 7.02535 7.44278 7.4307M42.0782 38.9975V14.3604M42.0782 38.9975C42.0782 39.6177 41.8938 40.125 41.5801 40.4806L35.0121 45.9408M39.375 10.4998L15.9416 1.83289M39.375 10.4998C40.868 11.0432 42.0782 12.7717 42.0782 14.3604M15.9416 1.83289C15.2768 1.59093 14.6681 1.62474 14.1973 1.87698L7.44278 7.4307M7.43237 7.4393C7.00787 7.79288 6.75 8.36829 6.75 9.10164V33.7387C6.75 35.3274 7.96028 37.0559 9.45323 37.5993L32.8866 46.2662C33.749 46.5801 34.5171 46.4299 35.0121 45.9408M7.43237 7.4393C7.43583 7.43642 7.4393 7.43356 7.44278 7.4307M7.43237 7.4393L7.44278 7.4307" stroke="black" stroke-width="1.4"/>
<path d="M15.8448 30.103L22.9646 30.3884L18.0117 23.3149L15.8448 30.103Z" fill="white"/>
<path d="M28.0273 38.0202V20.1599" stroke="black" stroke-width="1.4" stroke-linejoin="round"/>
<path d="M20.6855 35.3473V17.4871" stroke="black" stroke-width="1.4" stroke-linejoin="round"/>
<path d="M13.3438 32.6752V14.8149" stroke="black" stroke-width="1.4" stroke-linejoin="round"/>
<path d="M30.651 33.9513C30.651 35.4925 29.4769 36.3146 28.0286 35.7875C26.5803 35.2604 25.4062 33.5836 25.4062 32.0424C25.4062 30.5011 26.5803 29.679 28.0286 30.2062C29.4769 30.7333 30.651 32.4101 30.651 33.9513Z" fill="white" stroke="black" stroke-width="1.4" stroke-linejoin="round"/>
<path d="M23.3072 24.5805C23.3072 26.1217 22.1332 26.9438 20.6849 26.4167C19.2366 25.8895 18.0625 24.2128 18.0625 22.6715C18.0625 21.1303 19.2366 20.3082 20.6849 20.8353C22.1332 21.3625 23.3072 23.0392 23.3072 24.5805Z" fill="white" stroke="black" stroke-width="1.4" stroke-linejoin="round"/>
<path d="M15.9654 27.4901C15.9654 29.0314 14.7914 29.8535 13.3431 29.3263C11.8948 28.7992 10.7207 27.1224 10.7207 25.5812C10.7207 24.04 11.8948 23.2179 13.3431 23.745C14.7914 24.2721 15.9654 25.9489 15.9654 27.4901Z" fill="white" stroke="black" stroke-width="1.4" stroke-linejoin="round"/>
</svg>
