<svg width="48" height="48" viewBox="0 0 48 48" fill="none" xmlns="http://www.w3.org/2000/svg">
<rect width="12.1829" height="12.2236" transform="matrix(-0.766044 0.642788 0 1 26.168 19.6372)" fill="black" stroke="black" stroke-width="1.4" stroke-linejoin="bevel"/>
<path d="M3.75 22.7036L16.8353 27.4663V39.6493L3.75 34.8867V22.7036Z" stroke="black" stroke-width="1.4" stroke-linejoin="bevel"/>
<path d="M13 14.9658L26.0853 19.7285L16.8353 27.4663L3.75 22.7037L13 14.9658Z" stroke="black" stroke-width="1.4" stroke-linejoin="bevel"/>
<rect width="12.1829" height="12.2236" transform="matrix(-0.766044 0.642788 0 1 43.6172 26.2227)" fill="black" stroke="black" stroke-width="1.4" stroke-linejoin="bevel"/>
<path d="M21.1992 29.2893L34.2845 34.052V46.235L21.1992 41.4724V29.2893Z" fill="#F9F9F9" stroke="black" stroke-width="1.4" stroke-linejoin="bevel"/>
<path d="M30.4492 21.5515L43.5345 26.3142L34.2845 34.052L21.1992 29.2894L30.4492 21.5515Z" fill="#F9F9F9" stroke="black" stroke-width="1.4" stroke-linejoin="bevel"/>
<path d="M16.6211 19.8314V10.9345C16.6211 5.72397 20.5903 2.94468 25.4866 4.72679V4.72679C30.3829 6.50889 34.3521 12.1775 34.3521 17.3881V26.4057" stroke="black" stroke-width="1.4"/>
<path d="M12.75 23.9164V15.0195C12.75 9.80893 16.7192 7.02964 21.6155 8.81175V8.81175C26.5118 10.5939 30.481 16.2625 30.481 21.473V30.4907" stroke="black" stroke-width="1.4"/>
</svg>
