<?xml version="1.0" encoding="UTF-8"?><svg id="Top" xmlns="http://www.w3.org/2000/svg" viewBox="0 0 194.76 195.26"><defs><style>.cls-1{fill:#000546;}</style></defs><path class="cls-1" d="M76.64,165.19c-.11,0-.22-.01-.33-.05-30.88-8.5-52.45-36.84-52.45-68.91,0-39.41,32.06-71.47,71.47-71.47s71.47,32.06,71.47,71.47c0,.69-.56,1.25-1.25,1.25s-1.25-.56-1.25-1.25c0-38.03-30.94-68.96-68.96-68.96S26.36,58.21,26.36,96.23c0,30.94,20.81,58.29,50.61,66.49,.67,.18,1.06,.87,.87,1.54-.15,.56-.66,.92-1.21,.92Z"/><path class="cls-1" d="M53.55,141.57c-.31,0-.62-.11-.86-.34-12.48-11.83-19.35-27.81-19.35-45,0-34.18,27.81-61.99,61.99-61.99s61.99,27.81,61.99,61.99c0,.69-.56,1.25-1.25,1.25s-1.25-.56-1.25-1.25c0-32.8-26.68-59.48-59.48-59.48s-59.48,26.68-59.48,59.48c0,16.49,6.59,31.83,18.57,43.18,.5,.48,.52,1.27,.05,1.77-.25,.26-.58,.39-.91,.39Z"/><path class="cls-1" d="M45.81,109.34c-.57,0-1.08-.39-1.22-.96-.94-3.95-1.42-8.04-1.42-12.15,0-28.76,23.4-52.15,52.15-52.15s52.15,23.4,52.15,52.15c0,.69-.56,1.25-1.25,1.25s-1.25-.56-1.25-1.25c0-27.38-22.27-49.65-49.65-49.65s-49.65,22.27-49.65,49.65c0,3.91,.46,7.8,1.35,11.57,.16,.67-.25,1.35-.93,1.51-.1,.02-.2,.03-.29,.03Z"/><path class="cls-1" d="M135.99,97.48c-.69,0-1.25-.56-1.25-1.25,0-21.74-17.68-39.42-39.42-39.42-8.02,0-15.73,2.39-22.31,6.92-4.4,3.03-8.09,6.84-10.96,11.34-.37,.58-1.15,.76-1.73,.38-.58-.37-.76-1.15-.38-1.73,3.05-4.79,6.97-8.84,11.65-12.06,7-4.81,15.2-7.36,23.73-7.36,23.12,0,41.93,18.81,41.93,41.93,0,.69-.56,1.25-1.25,1.25Z"/><path class="cls-1" d="M125.66,97.48c-.69,0-1.25-.56-1.25-1.25,0-16.04-13.05-29.09-29.09-29.09-3.52,0-6.96,.62-10.22,1.85-.65,.24-1.37-.08-1.61-.73-.24-.65,.09-1.37,.73-1.61,3.55-1.33,7.28-2.01,11.1-2.01,17.42,0,31.59,14.17,31.59,31.59,0,.69-.56,1.25-1.25,1.25Z"/><path class="cls-1" d="M115.56,97.48c-.69,0-1.25-.56-1.25-1.25,0-5.81-2.61-11.22-7.15-14.85-.54-.43-.63-1.22-.2-1.76s1.22-.63,1.76-.2c5.14,4.11,8.09,10.23,8.09,16.8,0,.69-.56,1.25-1.25,1.25Z"/><path class="cls-1" d="M175.98,97.59h-60.42c-.69,0-1.25-.56-1.25-1.25s.56-1.25,1.25-1.25h60.42c.69,0,1.25,.56,1.25,1.25s-.56,1.25-1.25,1.25Z"/><path class="cls-1" d="M95.53,178.31c-45.21,0-81.99-36.78-81.99-81.99S50.32,14.33,95.53,14.33s81.99,36.78,81.99,81.99c0,.69-.56,1.25-1.25,1.25s-1.25-.56-1.25-1.25c0-43.83-35.66-79.48-79.48-79.48S16.05,52.49,16.05,96.32s35.66,79.48,79.48,79.48c2.71,0,5.45-.14,8.13-.41,.7-.06,1.3,.43,1.37,1.12,.07,.69-.43,1.3-1.12,1.37-2.77,.28-5.59,.42-8.38,.42Z"/></svg>